# xmcd CD database file generated by Grip 3.3.1
# 
# Track frame offsets:
#       150
#       43097
#       68145
#       90710
#       118322
#       144308
#       161961
#       183867
# 
# Disc length: 3090 seconds
# 
# Revision: 1
# Processed by: cddbd v1.5.2PL0 Copyright (c) Steve Scherf et al.
# Submitted via: Grip 3.3.1
# 
DISCID=700c1008
DTITLE=Mike Mainieri - L'Image 2.0
DYEAR=2009
DGENRE=Jazz
TTITLE0=Praise
TTITLE1=Reunion
TTITLE2=Gadd-Ddaggit!
TTITLE3=Doesn't She Know By Now?
TTITLE4=The Brat
TTITLE5=All In A Row
TTITLE6=Hidden Drive
TTITLE7=Love Play/Coming Home
EXTD=YEAR: 2009
EXTT0=
EXTT1=
EXTT2=
EXTT3=
EXTT4=
EXTT5=
EXTT6=
EXTT7=
PLAYORDER=
